<svg width="20" height="22" viewBox="0 0 20 22" fill="currentColor" xmlns="http://www.w3.org/2000/svg">
    <path d="M9.5 0.968994C7.8431 0.968994 6.5001 2.30899 6.5 3.96899V5.03149H5.5C4.5855 4.99469 3.1819 5.5921 2.6563 7.0628L1.5 7.03149C0.9477 7.03149 0.4999 7.47819 0.5 8.03149C0.5 8.58479 0.9477 9.03199 1.5 9.03099H2.5V10.031H1.5C0.9477 10.031 0.4999 10.478 0.5 11.031C0.5 11.585 0.9477 12.031 1.5 12.031H2.5V13.031H1.5C0.9477 13.031 0.4999 13.478 0.5 14.031C0.5 14.585 0.9477 15.032 1.5 15.031H2.5V16.031H1.5C0.9477 16.031 0.4999 16.478 0.5 17.031C0.5 17.585 0.9477 18.032 1.5 18.031H2.5C2.5 19.688 3.8431 21.032 5.5 21.031H12.5C14.1569 21.031 15.5 19.688 15.5 18.031V17.031L16.5 17C18.1569 17 19.4999 15.66 19.5 14V3.96899C19.5 2.30909 18.1568 0.968794 16.5 0.968994H9.5ZM16.5 2.96899C17.0523 2.96899 17.5001 3.41569 17.5 3.96899V13.969C17.5 14.522 17.0523 14.969 16.5 14.969L15.5 15V8.03149C15.5 6.37459 14.1569 5.03149 12.5 5.03149H8.5V4.00019C8.5 3.44699 8.9477 3.00019 9.5 3.00019L16.5 2.96899ZM5.5 7.03149H12.5C13.0523 7.03149 13.5 7.47919 13.5 8.03149V17V18.031C13.5 18.584 13.0523 19.032 12.5 19.031H5.5C4.9477 19.031 4.5 18.584 4.5 18.031V17V16.031V8.03149C4.5 7.75489 4.6003 7.4936 4.7813 7.3128C4.9622 7.1318 5.2239 7.03149 5.5 7.03149Z" />
</svg>
