<svg width="18" height="18" viewBox="0 0 18 18" fill="currentColor" xmlns="http://www.w3.org/2000/svg">
<path fill-rule="evenodd" clip-rule="evenodd" d="M16.5 0H1.5C0.671573 0 0 0.671573 0 1.5V16.5C0 17.3284 0.671573 18 1.5 18H16.5C17.3284 18 18 17.3284 18 16.5V1.5C18 0.671573 17.3284 0 16.5 0ZM14.25 9.75H9.75V14.25C9.75 14.6642 9.41421 15 9 15C8.58579 15 8.25 14.6642 8.25 14.25V9.75H3.75C3.33579 9.75 3 9.41421 3 9C3 8.58579 3.33579 8.25 3.75 8.25H8.25V3.75C8.25 3.33579 8.58579 3 9 3C9.41421 3 9.75 3.33579 9.75 3.75V8.25H14.25C14.6642 8.25 15 8.58579 15 9C15 9.41421 14.6642 9.75 14.25 9.75Z" fill="currentColor"/>
</svg>
